<svg xmlns="http://www.w3.org/2000/svg" width="168" height="44" viewBox="0 0 168 44"><defs><style>.a{fill:#fcd85a;}.b{fill:none;}.c{fill:#fff;font-size:26px;font-family:PingFang SC Heavy, PingFang SC;}.d,.e{stroke:none;}.e{fill:#fcd85a;}</style></defs><g transform="translate(-201 -2540)"><path class="a" d="M123.606,0,138,17.477,123.606,34.953H.393L-14,17.477.393,0Z" transform="translate(223 2544.523)"/><g class="b" transform="translate(215 2540)"><path class="d" d="M134.5,0,154,22,134.5,44H5.5L-14,22,5.5,0Z"/><path class="e" d="M 5.949905395507812 1 L -12.66372680664062 21.99997901916504 L 5.949920654296875 43 L 134.0500793457031 43 L 152.6637268066406 22 L 134.0500793457031 1 L 5.949905395507812 1 M 5.5 0 L 134.5 0 L 154 22 L 134.5 44 L 5.5 44 L -14 21.99997901916504 L 5.5 0 Z"/></g><text class="c" transform="translate(259 2571)"><tspan x="0" y="0">精神</tspan></text></g></svg>