<svg xmlns="http://www.w3.org/2000/svg" width="168" height="44" viewBox="0 0 168 44"><defs><style>.a{fill:#1bd8ee;}.b{fill:none;}.c{fill:#fff;font-size:26px;font-family:PingFang SC Heavy, PingFang SC;}.d,.e{stroke:none;}.e{fill:#1bd8ee;}</style></defs><g transform="translate(-201 -2213)"><g class="a" transform="translate(223 2217.523)"><path class="d" d="M 123.3705368041992 34.45307922363281 L 0.6287326216697693 34.45307922363281 L -13.35227298736572 17.47653770446777 L 0.6287326216697693 0.4999977052211761 L 123.3705368041992 0.4999977052211761 L 137.3515472412109 17.47653770446777 L 123.3705368041992 34.45307922363281 Z"/><path class="e" d="M 0.8646926879882812 0.9999961853027344 L -12.70454406738281 17.47653770446777 L 0.8646926879882812 33.95307922363281 L 123.1345748901367 33.95307922363281 L 136.7038116455078 17.47653770446777 L 123.1345748901367 0.9999961853027344 L 0.8646926879882812 0.9999961853027344 M 0.3927764892578125 -3.814697265625e-06 L 123.6064910888672 -3.814697265625e-06 L 137.999267578125 17.47653770446777 L 123.6064910888672 34.95307922363281 L 0.3927764892578125 34.95307922363281 L -14 17.47653770446777 L 0.3927764892578125 -3.814697265625e-06 Z"/></g><g class="b" transform="translate(215 2213)"><path class="d" d="M134.5,0,154,22,134.5,44H5.5L-14,22,5.5,0Z"/><path class="e" d="M 5.949905395507812 1 L -12.66372680664062 21.99997901916504 L 5.949920654296875 43 L 134.0500793457031 43 L 152.6637268066406 22 L 134.0500793457031 1 L 5.949905395507812 1 M 5.5 0 L 134.5 0 L 154 22 L 134.5 44 L 5.5 44 L -14 21.99997901916504 L 5.5 0 Z"/></g><text class="c" transform="translate(259 2244)"><tspan x="0" y="0">启动</tspan></text></g></svg>